<svg xmlns="http://www.w3.org/2000/svg" version="1.1" xmlns:xlink="http://www.w3.org/1999/xlink" xmlns:svgjs="http://svgjs.com/svgjs" width="1000" height="1000"><svg xmlns="http://www.w3.org/2000/svg" version="1.1" xmlns:xlink="http://www.w3.org/1999/xlink" xmlns:svgjs="http://svgjs.dev/svgjs" width="1000" height="1000" viewBox="0 0 1000 1000"><rect width="1000" height="1000" fill="#096a2e"></rect><g transform="matrix(0.7,0,0,0.7,149.57577035013975,282.1265587044535)"><svg viewBox="0 0 396 247" data-background-color="#096a2e" preserveAspectRatio="xMidYMid meet" height="623" width="1000" xmlns="http://www.w3.org/2000/svg" xmlns:xlink="http://www.w3.org/1999/xlink"><defs></defs><g id="SvgjsG1001" transform="matrix(1,0,0,1,0.2399927733495133,-0.09999999999999432)"><svg viewBox="0 0 395.52 247.2" height="247.2" width="395.52"><g><svg></svg></g><g><svg viewBox="0 0 395.52 247.2" height="247.2" width="395.52"><g><path d="M42.217 187.713h-25.675l0-36.233 25.675 0zM16.542 84.117h-15.226v-24.63h56.127v24.63h-15.226l0 11.603-25.675 0zM87.745 187.713h-23.137l0-36.233 23.137 0zM64.608 59.487h39.11l4.978 36.233-20.882 0-0.069-0.407 0 0.407h-23.137zM125.213 59.487h39.408l0 36.233-23.436 0v-0.407l-0.065 0.407-20.886 0zM164.621 187.713h-23.436l0-36.233 23.436 0zM126.407 187.713h-22.988l-6.146-36.233h34.929zM212.687 187.713h-25.675l0-36.233 25.675 0zM187.012 84.117h-15.226v-24.63h56.127v24.63h-15.226l0 11.603-25.675 0zM271.8 187.713h-25.675l0-36.233 25.675 0zM246.125 84.117h-15.226v-24.63h56.127v24.63h-15.226l0 11.603-25.675 0zM317.328 187.713h-23.137l0-36.233 23.137 0zM294.191 59.487h39.109l4.979 36.233-20.882 0-0.069-0.407 0 0.407h-23.137zM354.796 59.487h39.408v36.233l-23.436 0v-0.407l-0.065 0.407-20.886 0zM394.204 187.713h-23.436v-36.233l23.436 0zM355.99 187.713h-22.988l-6.146-36.233 34.929 0z" fill="#c9efc7" data-fill-palette-color="tertiary"></path></g><g transform="matrix(1,0,0,1,0,102.0185582439511)"><svg viewBox="0 0 395.52 43.16288351209778" height="43.16288351209778" width="395.52"><g><svg viewBox="0 0 395.52 43.16288351209778" height="43.16288351209778" width="395.52"><g><svg viewBox="0 0 395.52 43.16288351209778" height="43.16288351209778" width="395.52"><g><svg viewBox="0 0 395.52 43.16288351209778" height="43.16288351209778" width="395.52"><g><svg viewBox="0 0 395.52 43.16288351209778" height="43.16288351209778" width="395.52"><g><svg viewBox="0 0 395.52 43.16288351209778" height="43.16288351209778" width="395.52"><g transform="matrix(1,0,0,1,0,0)"><svg width="395.52" viewBox="0.5 -43.349998474121094 400.8599853515625 43.75" height="43.16288351209778" data-palette-color="#c9efc7"><path d="M14.2 0L5.6 0 5.6-34.7 0.5-34.7 0.5-42.95 19.3-42.95 19.3-34.7 14.2-34.7 14.2 0ZM29.6 0L21.3 0 21.3-42.95 29.6-42.95 29.6 0ZM33.05 0L33.05-42.95 44.39-42.95Q49.55-42.95 51.75-39.63 53.95-36.3 53.95-29.9L53.95-29.9Q53.95-23.5 52-20.25 50.05-17 45-17L45-17 41.5-17 41.5 0 33.05 0ZM41.5-24.75L42-24.75Q43.55-24.75 44.27-25.33 45-25.9 45.22-26.98 45.45-28.05 45.45-30.05L45.45-30.05Q45.45-32.75 44.84-33.95 44.25-35.15 42.45-35.15L42.45-35.15 41.5-35.15 41.5-24.75ZM56.64 0L56.64-42.95 67.99-42.95Q73.14-42.95 75.34-39.63 77.54-36.3 77.54-29.9L77.54-29.9Q77.54-23.5 75.59-20.25 73.64-17 68.59-17L68.59-17 65.09-17 65.09 0 56.64 0ZM65.09-24.75L65.59-24.75Q67.14-24.75 67.87-25.33 68.59-25.9 68.82-26.98 69.04-28.05 69.04-30.05L69.04-30.05Q69.04-32.75 68.44-33.95 67.84-35.15 66.04-35.15L66.04-35.15 65.09-35.15 65.09-24.75ZM99.69 0L91.94 0 91.94-42.95 105.04-42.95 108.64-16.75 112.24-42.95 125.44-42.95 125.44 0 117.59 0 117.59-30.95 112.64 0 104.94 0 99.69-30.95 99.69 0ZM146.99 0L129.24 0 129.24-42.95 146.44-42.95 146.44-34.65 137.99-34.65 137.99-26.3 146.09-26.3 146.09-18.2 137.99-18.2 137.99-8.35 146.99-8.35 146.99 0ZM173.83 0L165.23 0 165.23-34.7 160.13-34.7 160.13-42.95 178.93-42.95 178.93-34.7 173.83-34.7 173.83 0ZM191.58 0.4Q186.38 0.4 183.68-2.78 180.98-5.95 180.98-11.7L180.98-11.7 180.98-32.15Q180.98-37.7 183.68-40.53 186.38-43.35 191.58-43.35L191.58-43.35Q196.78-43.35 199.48-40.53 202.18-37.7 202.18-32.15L202.18-32.15 202.18-11.7Q202.18-5.9 199.48-2.75 196.78 0.4 191.58 0.4L191.58 0.4ZM191.58-7.5Q192.73-7.5 193.13-8.5 193.53-9.5 193.53-11.3L193.53-11.3 193.53-32.3Q193.53-33.7 193.15-34.58 192.78-35.45 191.63-35.45L191.63-35.45Q189.48-35.45 189.48-32.2L189.48-32.2 189.48-11.25Q189.48-9.4 189.93-8.45 190.38-7.5 191.58-7.5L191.58-7.5ZM229.62 0L221.02 0 221.02-34.7 215.92-34.7 215.92-42.95 234.72-42.95 234.72-34.7 229.62-34.7 229.62 0ZM245.67 0L237.12 0 237.12-42.95 245.67-42.95 245.67-27.6 249.72-27.6 249.72-42.95 258.27-42.95 258.27 0 249.72 0 249.72-19.5 245.67-19.5 245.67 0ZM279.82 0L262.07 0 262.07-42.95 279.27-42.95 279.27-34.65 270.82-34.65 270.82-26.3 278.92-26.3 278.92-18.2 270.82-18.2 270.82-8.35 279.82-8.35 279.82 0ZM302.11 0L294.36 0 294.36-42.95 307.46-42.95 311.06-16.75 314.66-42.95 327.86-42.95 327.86 0 320.01 0 320.01-30.95 315.06 0 307.36 0 302.11-30.95 302.11 0ZM341.91 0.4Q336.71 0.4 334.01-2.78 331.31-5.95 331.31-11.7L331.31-11.7 331.31-32.15Q331.31-37.7 334.01-40.53 336.71-43.35 341.91-43.35L341.91-43.35Q347.11-43.35 349.81-40.53 352.51-37.7 352.51-32.15L352.51-32.15 352.51-11.7Q352.51-5.9 349.81-2.75 347.11 0.4 341.91 0.4L341.91 0.4ZM341.91-7.5Q343.06-7.5 343.46-8.5 343.86-9.5 343.86-11.3L343.86-11.3 343.86-32.3Q343.86-33.7 343.49-34.58 343.11-35.45 341.96-35.45L341.96-35.45Q339.81-35.45 339.81-32.2L339.81-32.2 339.81-11.25Q339.81-9.4 340.26-8.45 340.71-7.5 341.91-7.5L341.91-7.5ZM366.21 0.4Q361.01 0.4 358.31-2.78 355.61-5.95 355.61-11.7L355.61-11.7 355.61-32.15Q355.61-37.7 358.31-40.53 361.01-43.35 366.21-43.35L366.21-43.35Q371.41-43.35 374.11-40.53 376.81-37.7 376.81-32.15L376.81-32.15 376.81-11.7Q376.81-5.9 374.11-2.75 371.41 0.4 366.21 0.4L366.21 0.4ZM366.21-7.5Q367.36-7.5 367.76-8.5 368.16-9.5 368.16-11.3L368.16-11.3 368.16-32.3Q368.16-33.7 367.78-34.58 367.41-35.45 366.26-35.45L366.26-35.45Q364.11-35.45 364.11-32.2L364.11-32.2 364.11-11.25Q364.11-9.4 364.56-8.45 365.01-7.5 366.21-7.5L366.21-7.5ZM388.66 0L380.26 0 380.26-42.95 389.11-42.95 393.06-22.4 393.06-42.95 401.36-42.95 401.36 0 392.96 0 388.66-21.5 388.66 0Z" opacity="1" transform="matrix(1,0,0,1,0,0)" fill="#c9efc7" class="undefined-text-0" data-fill-palette-color="primary" id="SvgjsPath1000"></path></svg></g></svg></g></svg></g></svg></g></svg></g></svg></g></svg></g></svg></g></svg><rect width="395.52" height="247.2" fill="none" stroke="none" visibility="hidden"></rect></g></svg></g></svg><style>@media (prefers-color-scheme: light) { :root { filter: none; } }
@media (prefers-color-scheme: dark) { :root { filter: none; } }
</style></svg>