<?xml version="1.0" encoding="UTF-8" standalone="no"?>
<!DOCTYPE svg PUBLIC "-//W3C//DTD SVG 1.1//EN" "http://www.w3.org/Graphics/SVG/1.1/DTD/svg11.dtd">
<svg width="100%" height="100%" viewBox="0 0 794 331" version="1.1" xmlns="http://www.w3.org/2000/svg" xmlns:xlink="http://www.w3.org/1999/xlink" xml:space="preserve" xmlns:serif="http://www.serif.com/" style="fill-rule:evenodd;clip-rule:evenodd;stroke-linejoin:round;stroke-miterlimit:2;">
    <g transform="matrix(1,0,0,1,-110,-332)">
        <rect x="0" y="0" width="1000" height="1000" style="fill:rgb(9,106,46);"/>
    </g>
    <g transform="matrix(0.7,0,0,0.7,39.9995,-50.05)">
        <g>
            <g id="tight-bounds">
                <g>
                    <g>
                        <g>
                            <g>
                                <path d="M107.074,473.462L42.314,473.462L42.314,382.073L107.074,382.073L107.074,473.462ZM42.314,212.166L3.91,212.166L3.91,150.042L145.478,150.042L145.478,212.166L107.074,212.166L107.074,241.431L42.314,241.431L42.314,212.166ZM221.907,473.462L163.55,473.462L163.55,382.073L221.907,382.073L221.907,473.462ZM163.55,150.042L262.196,150.042L274.751,241.431L222.081,241.431L221.907,240.405L221.907,241.431L163.55,241.431L163.55,150.042ZM316.412,150.042L415.809,150.042L415.809,241.431L356.697,241.431L356.697,240.405L356.533,241.431L303.853,241.431L316.412,150.042ZM415.809,473.462L356.697,473.462L356.697,382.073L415.809,382.073L415.809,473.462ZM319.423,473.462L261.441,473.462L245.94,382.073L334.04,382.073L319.423,473.462ZM537.045,473.462L472.285,473.462L472.285,382.073L537.045,382.073L537.045,473.462ZM472.285,212.166L433.881,212.166L433.881,150.042L575.449,150.042L575.449,212.166L537.045,212.166L537.045,241.431L472.285,241.431L472.285,212.166ZM686.143,473.462L621.384,473.462L621.384,382.073L686.143,382.073L686.143,473.462ZM621.384,212.166L582.98,212.166L582.98,150.042L724.547,150.042L724.547,212.166L686.143,212.166L686.143,241.431L621.384,241.431L621.384,212.166ZM800.977,473.462L742.619,473.462L742.619,382.073L800.977,382.073L800.977,473.462ZM742.619,150.042L841.263,150.042L853.821,241.431L801.151,241.431L800.977,240.405L800.977,241.431L742.619,241.431L742.619,150.042ZM895.481,150.042L994.879,150.042L994.879,241.431L935.767,241.431L935.767,240.405L935.603,241.431L882.923,241.431L895.481,150.042ZM994.879,473.462L935.767,473.462L935.767,382.073L994.879,382.073L994.879,473.462ZM898.493,473.462L840.511,473.462L825.009,382.073L913.11,382.073L898.493,473.462Z" style="fill:rgb(201,239,199);fill-rule:nonzero;"/>
                            </g>
                            <g transform="matrix(2.50573,0,0,2.50573,3.86094,257.743)">
                                <g>
                                    <g>
                                        <g>
                                            <g>
                                                <g>
                                                    <g>
                                                        <g>
                                                            <g>
                                                                <g>
                                                                    <g>
                                                                        <g>
                                                                            <g>
                                                                                <g>
                                                                                    <path id="text-0" d="M13.536,42.768L5.051,42.768L5.051,8.534L0.02,8.534L0.02,0.395L18.567,0.395L18.567,8.534L13.536,8.534L13.536,42.768ZM28.729,42.768L20.541,42.768L20.541,0.395L28.729,0.395L28.729,42.768ZM32.133,42.768L32.133,0.395L43.321,0.395C46.715,0.395 49.135,1.486 50.582,3.67C52.029,5.86 52.752,9.06 52.752,13.27C52.752,17.479 52.111,20.652 50.829,22.79C49.546,24.928 47.244,25.996 43.923,25.996L40.47,25.996L40.47,42.768L32.133,42.768ZM40.47,18.35L40.963,18.35C41.982,18.35 42.729,18.16 43.202,17.778C43.682,17.403 43.995,16.861 44.14,16.15C44.291,15.447 44.367,14.437 44.367,13.122C44.367,11.346 44.166,10.063 43.765,9.274C43.377,8.485 42.591,8.09 41.407,8.09L40.47,8.09L40.47,18.35ZM55.406,42.768L55.406,0.395L66.604,0.395C69.991,0.395 72.408,1.486 73.855,3.67C75.302,5.86 76.026,9.06 76.026,13.27C76.026,17.479 75.385,20.652 74.102,22.79C72.819,24.928 70.517,25.996 67.196,25.996L63.743,25.996L63.743,42.768L55.406,42.768ZM63.743,18.35L64.236,18.35C65.256,18.35 66.006,18.16 66.486,17.778C66.959,17.403 67.272,16.861 67.423,16.15C67.568,15.447 67.64,14.437 67.64,13.122C67.64,11.346 67.443,10.063 67.048,9.274C66.653,8.485 65.864,8.09 64.68,8.09L63.743,8.09L63.743,18.35ZM97.879,42.768L90.233,42.768L90.233,0.395L103.157,0.395L106.709,26.243L110.26,0.395L123.283,0.395L123.283,42.768L115.538,42.768L115.538,12.234L110.655,42.768L103.058,42.768L97.879,12.234L97.879,42.768ZM144.544,42.768L127.032,42.768L127.032,0.395L144.001,0.395L144.001,8.583L135.665,8.583L135.665,16.821L143.656,16.821L143.656,24.812L135.665,24.812L135.665,34.53L144.544,34.53L144.544,42.768ZM171.024,42.768L162.539,42.768L162.539,8.534L157.508,8.534L157.508,0.395L176.055,0.395L176.055,8.534L171.024,8.534L171.024,42.768ZM188.535,43.163C185.115,43.163 182.517,42.117 180.741,40.026C178.966,37.941 178.078,35.007 178.078,31.225L178.078,11.05C178.078,7.399 178.966,4.644 180.741,2.782C182.517,0.927 185.115,-0 188.535,-0C191.956,-0 194.554,0.927 196.329,2.782C198.105,4.644 198.993,7.399 198.993,11.05L198.993,31.225C198.993,35.04 198.105,37.983 196.329,40.055C194.554,42.127 191.956,43.163 188.535,43.163ZM188.535,35.369C189.292,35.369 189.802,35.04 190.065,34.382C190.328,33.725 190.459,32.804 190.459,31.62L190.459,10.902C190.459,9.981 190.334,9.231 190.084,8.652C189.841,8.08 189.341,7.794 188.585,7.794C187.171,7.794 186.464,8.863 186.464,11L186.464,31.669C186.464,32.886 186.612,33.807 186.908,34.432C187.204,35.056 187.746,35.369 188.535,35.369ZM226.065,42.768L217.58,42.768L217.58,8.534L212.549,8.534L212.549,0.395L231.097,0.395L231.097,8.534L226.065,8.534L226.065,42.768ZM241.9,42.768L233.464,42.768L233.464,0.395L241.9,0.395L241.9,15.539L245.895,15.539L245.895,0.395L254.331,0.395L254.331,42.768L245.895,42.768L245.895,23.53L241.9,23.53L241.9,42.768ZM275.591,42.768L258.08,42.768L258.08,0.395L275.049,0.395L275.049,8.583L266.712,8.583L266.712,16.821L274.703,16.821L274.703,24.812L266.712,24.812L266.712,34.53L275.591,34.53L275.591,42.768ZM297.582,42.768L289.936,42.768L289.936,0.395L302.86,0.395L306.412,26.243L309.964,0.395L322.987,0.395L322.987,42.768L315.242,42.768L315.242,12.234L310.358,42.768L302.762,42.768L297.582,12.234L297.582,42.768ZM336.848,43.163C333.428,43.163 330.83,42.117 329.054,40.026C327.278,37.941 326.39,35.007 326.39,31.225L326.39,11.05C326.39,7.399 327.278,4.644 329.054,2.782C330.83,0.927 333.428,-0 336.848,-0C340.268,-0 342.866,0.927 344.642,2.782C346.418,4.644 347.306,7.399 347.306,11.05L347.306,31.225C347.306,35.04 346.418,37.983 344.642,40.055C342.866,42.127 340.268,43.163 336.848,43.163ZM336.848,35.369C337.604,35.369 338.114,35.04 338.377,34.382C338.64,33.725 338.772,32.804 338.772,31.62L338.772,10.902C338.772,9.981 338.65,9.231 338.407,8.652C338.157,8.08 337.654,7.794 336.897,7.794C335.483,7.794 334.776,8.863 334.776,11L334.776,31.669C334.776,32.886 334.924,33.807 335.22,34.432C335.516,35.056 336.059,35.369 336.848,35.369ZM360.822,43.163C357.402,43.163 354.804,42.117 353.028,40.026C351.252,37.941 350.364,35.007 350.364,31.225L350.364,11.05C350.364,7.399 351.252,4.644 353.028,2.782C354.804,0.927 357.402,-0 360.822,-0C364.242,-0 366.84,0.927 368.616,2.782C370.392,4.644 371.28,7.399 371.28,11.05L371.28,31.225C371.28,35.04 370.392,37.983 368.616,40.055C366.84,42.127 364.242,43.163 360.822,43.163ZM360.822,35.369C361.578,35.369 362.088,35.04 362.351,34.382C362.614,33.725 362.746,32.804 362.746,31.62L362.746,10.902C362.746,9.981 362.621,9.231 362.371,8.652C362.128,8.08 361.628,7.794 360.871,7.794C359.457,7.794 358.75,8.863 358.75,11L358.75,31.669C358.75,32.886 358.898,33.807 359.194,34.432C359.49,35.056 360.033,35.369 360.822,35.369ZM382.971,42.768L374.683,42.768L374.683,0.395L383.415,0.395L387.312,20.669L387.312,0.395L395.5,0.395L395.5,42.768L387.213,42.768L382.971,21.557L382.971,42.768Z" style="fill:rgb(201,239,199);fill-rule:nonzero;"/>
                                                                                </g>
                                                                            </g>
                                                                        </g>
                                                                    </g>
                                                                </g>
                                                            </g>
                                                        </g>
                                                    </g>
                                                </g>
                                            </g>
                                        </g>
                                    </g>
                                </g>
                            </g>
                        </g>
                    </g>
                </g>
            </g>
        </g>
    </g>
</svg>
